<svg width="102" height="102" viewBox="0 0 102 102" fill="none" xmlns="http://www.w3.org/2000/svg">
<rect x="4" y="4" width="94" height="94" rx="47" fill="white" stroke="url(#paint0_angular_8_338)" stroke-width="8"/>
<path d="M31.025 41.875V37.195H40.385V70H35.21V41.875H31.025ZM47.4324 53.17C47.4324 47.98 48.3024 43.93 50.0424 41.02C51.8124 38.08 54.8424 36.61 59.1324 36.61C63.4224 36.61 66.4374 38.08 68.1774 41.02C69.9474 43.93 70.8324 47.98 70.8324 53.17C70.8324 58.42 69.9474 62.53 68.1774 65.5C66.4374 68.44 63.4224 69.91 59.1324 69.91C54.8424 69.91 51.8124 68.44 50.0424 65.5C48.3024 62.53 47.4324 58.42 47.4324 53.17ZM65.7924 53.17C65.7924 50.74 65.6274 48.685 65.2974 47.005C64.9974 45.325 64.3674 43.96 63.4074 42.91C62.4474 41.83 61.0224 41.29 59.1324 41.29C57.2424 41.29 55.8174 41.83 54.8574 42.91C53.8974 43.96 53.2524 45.325 52.9224 47.005C52.6224 48.685 52.4724 50.74 52.4724 53.17C52.4724 55.69 52.6224 57.805 52.9224 59.515C53.2224 61.225 53.8524 62.605 54.8124 63.655C55.8024 64.705 57.2424 65.23 59.1324 65.23C61.0224 65.23 62.4474 64.705 63.4074 63.655C64.3974 62.605 65.0424 61.225 65.3424 59.515C65.6424 57.805 65.7924 55.69 65.7924 53.17Z" fill="black"/>
<defs>
<radialGradient id="paint0_angular_8_338" cx="0" cy="0" r="1" gradientUnits="userSpaceOnUse" gradientTransform="translate(51 51) rotate(90) scale(51)">
<stop stop-color="#FFCA28"/>
<stop offset="1" stop-color="white" stop-opacity="0"/>
</radialGradient>
</defs>
</svg>
