<svg width="28" height="24" viewBox="0 0 28 24" fill="none" xmlns="http://www.w3.org/2000/svg">
<path d="M27.5001 12C27.4908 10.9916 27.0845 10.0275 26.3693 9.31665L18.1468 1.07499C17.7877 0.718011 17.3019 0.517639 16.7956 0.517639C16.2892 0.517639 15.8034 0.718011 15.4443 1.07499C15.2647 1.25317 15.1221 1.46516 15.0248 1.69872C14.9275 1.93228 14.8774 2.1828 14.8774 2.43582C14.8774 2.68885 14.9275 2.93936 15.0248 3.17293C15.1221 3.40649 15.2647 3.61848 15.4443 3.79665L21.7501 10.0833H2.58348C2.07514 10.0833 1.58763 10.2852 1.22819 10.6447C0.868743 11.0041 0.666809 11.4916 0.666809 12C0.666809 12.5083 0.868743 12.9958 1.22819 13.3553C1.58763 13.7147 2.07514 13.9166 2.58348 13.9166H21.7501L15.4443 20.2225C15.0834 20.5808 14.8796 21.0679 14.8778 21.5765C14.876 22.0851 15.0764 22.5736 15.4347 22.9346C15.7931 23.2955 16.2802 23.4992 16.7888 23.501C17.2974 23.5028 17.7859 23.3025 18.1468 22.9441L26.3693 14.7025C27.0892 13.9869 27.4959 13.015 27.5001 12Z" fill="#8479FF"/>
</svg>
