<svg width="52" height="56" viewBox="0 0 52 56" fill="none" xmlns="http://www.w3.org/2000/svg">
<path d="M45.8963 9.83948L31.8333 1.71948C30.0586 0.698927 28.0472 0.161835 26 0.161835C23.9528 0.161835 21.9414 0.698927 20.1667 1.71948L6.10366 9.83948C4.33237 10.8659 2.86143 12.3392 1.8378 14.1122C0.814165 15.8851 0.273675 17.8956 0.270325 19.9428V36.1828C0.273737 38.2303 0.814231 40.2411 1.83784 42.0144C2.86144 43.7877 4.33234 45.2615 6.10366 46.2885L20.1667 54.4061C21.9411 55.4274 23.9526 55.9649 26 55.9649C28.0474 55.9649 30.0588 55.4274 31.8333 54.4061L45.8963 46.2885C47.6676 45.2615 49.1385 43.7877 50.1621 42.0144C51.1858 40.2411 51.7262 38.2303 51.7297 36.1828V19.9428C51.7263 17.8956 51.1858 15.8851 50.1622 14.1122C49.1386 12.3392 47.6676 10.8659 45.8963 9.83948ZM22.5 5.76314C23.5641 5.14877 24.7712 4.82532 26 4.82532C27.2287 4.82532 28.4359 5.14877 29.5 5.76314L43.563 13.8808C43.9196 14.1062 44.2547 14.364 44.564 14.6508L30.1137 22.9925C28.8626 23.7137 27.444 24.0933 26 24.0933C24.556 24.0933 23.1373 23.7137 21.8863 22.9925L7.43599 14.6508C7.74532 14.364 8.0804 14.1062 8.43699 13.8808L22.5 5.76314ZM8.43699 42.2448C7.37347 41.6286 6.49042 40.7439 5.87619 39.6793C5.26196 38.6146 4.93809 37.4073 4.93699 36.1781V19.9428C4.9532 19.5224 5.00866 19.1045 5.10266 18.6945L19.553 27.0361C20.8292 27.7621 22.2207 28.2633 23.6667 28.5178V50.8455C23.2636 50.722 22.873 50.5611 22.5 50.3648L8.43699 42.2448ZM47.063 36.1781C47.0619 37.4073 46.738 38.6146 46.1238 39.6793C45.5096 40.7439 44.6265 41.6286 43.563 42.2448L29.5 50.3648C29.127 50.5611 28.7364 50.722 28.3333 50.8455V28.5178C29.7793 28.2633 31.1708 27.7621 32.447 27.0361L46.8973 18.6945C46.9913 19.1045 47.0468 19.5224 47.063 19.9428V36.1781Z" fill="#FD9090"/>
</svg>
