<svg width="28" height="24" viewBox="0 0 28 24" fill="none" xmlns="http://www.w3.org/2000/svg">
<path d="M27.5001 12C27.4908 10.9916 27.0845 10.0275 26.3692 9.31665L18.1467 1.07499C17.7876 0.718011 17.3019 0.517639 16.7955 0.517639C16.2891 0.517639 15.8034 0.718011 15.4442 1.07499C15.2646 1.25317 15.122 1.46516 15.0247 1.69872C14.9274 1.93228 14.8773 2.1828 14.8773 2.43582C14.8773 2.68885 14.9274 2.93936 15.0247 3.17293C15.122 3.40649 15.2646 3.61848 15.4442 3.79665L21.7501 10.0833H2.58341C2.07508 10.0833 1.58757 10.2852 1.22813 10.6447C0.868682 11.0041 0.666748 11.4916 0.666748 12C0.666748 12.5083 0.868682 12.9958 1.22813 13.3553C1.58757 13.7147 2.07508 13.9166 2.58341 13.9166H21.7501L15.4442 20.2225C15.0833 20.5808 14.8796 21.0679 14.8778 21.5765C14.876 22.0851 15.0763 22.5736 15.4347 22.9346C15.793 23.2955 16.2801 23.4992 16.7887 23.501C17.2973 23.5028 17.7858 23.3025 18.1467 22.9441L26.3692 14.7025C27.0891 13.9869 27.4958 13.015 27.5001 12Z" fill="#FD9090"/>
</svg>
